<svg id="workpiece_red_object" xmlns="http://www.w3.org/2000/svg" xmlns:xlink="http://www.w3.org/1999/xlink" viewBox="0 0 841.89 595.28"><defs><style>.cls-1{fill:none;}.cls-2{fill:url(#Unbenannter_Verlauf_70);}.cls-3{fill:url(#Unbenannter_Verlauf_188);}.cls-4{fill:url(#Unbenannter_Verlauf_168);}.cls-5{fill:url(#Unbenannter_Verlauf_72);}.cls-6{fill:url(#Unbenannter_Verlauf_187);}.cls-7{opacity:0.2;}.cls-8{fill:#fff;}</style><linearGradient id="Unbenannter_Verlauf_70" x1="74.94" y1="454.08" x2="766.94" y2="454.08" gradientUnits="userSpaceOnUse"><stop offset="0" stop-color="#661115"/><stop offset="0.5" stop-color="#8c171c"/><stop offset="1" stop-color="#661114"/></linearGradient><linearGradient id="Unbenannter_Verlauf_188" x1="74.94" y1="362.99" x2="766.94" y2="362.99" gradientUnits="userSpaceOnUse"><stop offset="0.01" stop-color="#99191f"/><stop offset="0.27" stop-color="#bf1f26"/><stop offset="0.48" stop-color="#da232b"/><stop offset="0.63" stop-color="#e6252e"/><stop offset="0.77" stop-color="#e4252e"/><stop offset="0.86" stop-color="#dc232c"/><stop offset="0.92" stop-color="#ce2129"/><stop offset="0.97" stop-color="#bf1f26"/><stop offset="1" stop-color="#d2222a"/></linearGradient><linearGradient id="Unbenannter_Verlauf_168" x1="74.94" y1="185.76" x2="766.94" y2="185.76" gradientUnits="userSpaceOnUse"><stop offset="0" stop-color="#e6252e"/><stop offset="0.03" stop-color="#e9262f"/><stop offset="0.14" stop-color="#f02730"/><stop offset="0.43" stop-color="#f22730"/><stop offset="0.71" stop-color="#f02730"/><stop offset="0.81" stop-color="#e92830"/><stop offset="0.88" stop-color="#de2931"/><stop offset="0.94" stop-color="#cd2a32"/><stop offset="0.99" stop-color="#b72c33"/><stop offset="1" stop-color="#b32c33"/></linearGradient><linearGradient id="Unbenannter_Verlauf_72" x1="4" y1="-77.5" x2="606.86" y2="262.23" gradientUnits="userSpaceOnUse"><stop offset="0.27" stop-color="#d2222a" stop-opacity="0"/><stop offset="0.29" stop-color="#d83d44" stop-opacity="0.07"/><stop offset="0.41" stop-color="#f4c8ca" stop-opacity="0.45"/><stop offset="0.46" stop-color="#fff" stop-opacity="0.6"/><stop offset="0.48" stop-color="#f9e1e2" stop-opacity="0.52"/><stop offset="0.55" stop-color="#e88f94" stop-opacity="0.3"/><stop offset="0.61" stop-color="#dc545a" stop-opacity="0.14"/><stop offset="0.66" stop-color="#d52f37" stop-opacity="0.04"/><stop offset="0.69" stop-color="#d2222a" stop-opacity="0"/></linearGradient><linearGradient id="Unbenannter_Verlauf_187" x1="101.94" y1="130" x2="741.94" y2="130" gradientUnits="userSpaceOnUse"><stop offset="0" stop-color="#fc656b"/><stop offset="1" stop-color="#e6454c"/></linearGradient></defs><title>ic_ft_workpiece_red</title><rect class="cls-1" width="841.89" height="595.28"/><g id="workpiece_red"><ellipse id="Kante_unten" data-name="Kante unten" class="cls-2" cx="420.95" cy="454.08" rx="346" ry="131.99"/><path id="Seite" class="cls-3" d="M766.95,455.46c0,62.43-154.91,113-346,113s-346-50.61-346-113v-298h692Z"/><path id="Kante_oben" data-name="Kante oben" class="cls-4" d="M766.95,157.46c0,62.43-154.91,113-346,113s-346-50.61-346-113c0-11.71,5.45-23,15.56-33.62l24-22.84h614.8l19.91,20.67C760.73,132.93,766.95,145,766.95,157.46Z"/><ellipse id="Licht" class="cls-5" cx="420.94" cy="157.46" rx="346" ry="113.04"/><ellipse id="Top" class="cls-6" cx="421.94" cy="130" rx="320" ry="104"/><g class="cls-7"><path class="cls-8" d="M727.17,210.14l-2.91,1.73L716,216.73l-6.08,3.1-3.45,1.76c-1.2.6-2.42,1.28-3.74,1.84l-8.35,3.73c-1.47.65-3,1.35-4.54,2L685.06,231c-3.3,1.25-6.71,2.66-10.3,3.93l-11.16,3.81-2.89,1-3,.9-6,1.82c-4.07,1.23-8.22,2.5-12.51,3.55l-13,3.38-13.43,3.06c-4.51,1.09-9.1,1.93-13.7,2.85l-6.91,1.37-3.46.68-3.48.59-13.92,2.3c-2.31.41-4.63.71-6.94,1l-6.91,1c-9.17,1.37-18.24,2.3-27,3.32-4.38.54-8.71.87-12.94,1.24l-12.4,1.06-22.75,1.42c-7.05.31-13.52.52-19.25.72l-4.16.14-3.87,0-6.82.08-12.93.12,12.92-.51,6.81-.25,3.87-.14,4.15-.24,19.21-1.1,22.7-1.76,12.37-1.24c4.22-.46,8.54-.76,12.91-1.33,8.74-1.06,17.8-2,26.94-3.44l6.89-1c2.3-.33,4.62-.64,6.92-1.06L584.84,256l3.48-.57,3.46-.66,6.9-1.33c4.59-.9,9.18-1.72,13.68-2.78l13.41-3,13-3.31c4.28-1,8.42-2.3,12.5-3.45l6-1.73,3-.86,2.9-.94,11.18-3.64c3.6-1.22,7-2.57,10.32-3.77l4.85-1.8c1.58-.6,3.07-1.29,4.56-1.89l8.41-3.52c1.34-.52,2.56-1.17,3.77-1.74l3.48-1.67,6.14-3Z"/></g><g class="cls-7"><path class="cls-8" d="M166.2,192.52s1.38.48,3.77,1.38c1.19.46,2.65,1,4.32,1.56l5.62,2,6.67,2.25,7.48,2.41c2.59.85,5.3,1.62,8,2.48s5.52,1.65,8.33,2.43,5.59,1.59,8.35,2.36,5.47,1.51,8.12,2.18l7.61,2,6.83,1.74,5.78,1.46,4.46,1.11c2.48.61,3.89,1,3.89,1s-1.44-.2-4-.61l-4.54-.76c-1.75-.31-3.73-.63-5.87-1.07s-4.48-.86-6.92-1.41-5-1.08-7.69-1.73c-5.33-1.24-11-2.73-16.59-4.33-2.81-.8-5.59-1.67-8.34-2.51s-5.43-1.75-8-2.65-5.07-1.8-7.42-2.67-4.55-1.76-6.58-2.58-3.88-1.6-5.5-2.34-3-1.34-4.2-1.89C167.51,193.17,166.2,192.52,166.2,192.52Z"/></g></g></svg>